<svg xmlns="http://www.w3.org/2000/svg" xmlns:xlink="http://www.w3.org/1999/xlink" width="1080" zoomAndPan="magnify" viewBox="0 0 810 1012.49997" height="1350" preserveAspectRatio="xMidYMid meet" version="1.0"><defs><clipPath id="1afc8993e5"><path d="M 686 237.160156 L 763 237.160156 L 763 260 L 686 260 Z M 686 237.160156 " clip-rule="nonzero"/></clipPath><clipPath id="72d742984a"><path d="M 49 718 L 77 718 L 77 774.644531 L 49 774.644531 Z M 49 718 " clip-rule="nonzero"/></clipPath><clipPath id="b9bed0712f"><path d="M 49 237.160156 L 717 237.160156 L 717 740 L 49 740 Z M 49 237.160156 " clip-rule="nonzero"/></clipPath></defs><g clip-path="url(#1afc8993e5)"><path fill="#b6ab40" d="M 713.269531 237.148438 C 713.269531 237.148438 748.3125 237.148438 762.519531 259.878906 L 686.046875 257.664062 L 713.269531 237.148438 " fill-opacity="1" fill-rule="nonzero"/></g><g clip-path="url(#72d742984a)"><path fill="#b6ab40" d="M 50.054688 739.652344 C 50.054688 739.652344 47.386719 766.753906 76.972656 774.796875 L 76.972656 718.285156 L 50.054688 739.652344 " fill-opacity="1" fill-rule="nonzero"/></g><g clip-path="url(#b9bed0712f)"><path fill="#f9e207" d="M 49.949219 739.652344 L 716.722656 237.148438 L 426.65625 237.148438 C 403.398438 237.148438 380.707031 244.328125 361.683594 257.714844 L 87.007812 450.960938 C 63.777344 467.308594 49.949219 493.9375 49.949219 522.34375 L 49.949219 739.652344 " fill-opacity="1" fill-rule="nonzero"/></g><path fill="#f9e207" d="M 391.21875 448.027344 L 289.746094 361.476562 L 310.171875 346.757812 L 354.539062 387.277344 C 366.402344 398.152344 378.566406 409.761719 387.808594 418.972656 L 388.117188 418.746094 C 381.855469 406.441406 375.832031 391.832031 369.238281 376.445312 L 346.347656 320.6875 L 366.460938 306.191406 L 411.746094 347 C 423.386719 357.558594 433.996094 367.679688 443.761719 377.9375 L 444.074219 377.710938 C 437.625 364.828125 431.464844 351.023438 425.0625 336.210938 L 401.699219 280.789062 L 421.191406 266.742188 L 468.710938 392.175781 L 448.128906 407.007812 L 401.589844 365.445312 C 390.285156 355.355469 381.21875 346.71875 371.769531 336.242188 L 371.457031 336.460938 C 377.683594 349.039062 382.957031 360.632812 388.492188 374.886719 L 411.953125 433.082031 Z M 317.859375 430.0625 L 278.25 458.605469 L 300.5 489.476562 L 344.785156 457.5625 L 356.140625 473.3125 L 292.675781 519.046875 L 216.933594 413.957031 L 278.054688 369.902344 L 289.402344 385.648438 L 247.457031 415.878906 L 267.015625 443.011719 L 306.617188 414.464844 Z M 187.273438 595.011719 L 111.53125 489.921875 L 133.363281 474.1875 L 192.96875 499.691406 C 208.417969 506.328125 223.257812 514.113281 236.296875 522.011719 L 236.609375 521.785156 C 225.246094 508.652344 215.003906 495.425781 203.425781 479.359375 L 177.019531 442.722656 L 194.796875 429.910156 L 270.542969 535 L 250.738281 549.273438 L 190.03125 522.898438 C 175.007812 516.195312 158.664062 508.304688 144.980469 500.167969 L 144.621094 500.660156 C 155.179688 513.664062 165.335938 527.429688 177.808594 544.734375 L 204.898438 582.316406 L 187.273438 595.011719 " fill-opacity="1" fill-rule="nonzero"/><path fill="#046cbb" d="M 379.664062 445.199219 L 278.191406 358.648438 L 298.617188 343.929688 L 342.988281 384.453125 C 354.851562 395.324219 367.011719 406.929688 376.253906 416.144531 L 376.5625 415.917969 C 370.300781 403.613281 364.277344 389.003906 357.6875 373.617188 L 334.796875 317.855469 L 354.910156 303.359375 L 400.195312 344.171875 C 411.835938 354.730469 422.445312 364.851562 432.207031 375.109375 L 432.519531 374.878906 C 426.074219 362 419.910156 348.195312 413.507812 333.382812 L 390.144531 277.960938 L 409.636719 263.914062 L 457.15625 389.347656 L 436.578125 404.179688 L 390.039062 362.621094 C 378.734375 352.527344 369.667969 343.894531 360.21875 333.410156 L 359.90625 333.636719 C 366.128906 346.214844 371.40625 357.804688 376.941406 372.054688 L 400.402344 430.25 Z M 306.308594 427.234375 L 266.699219 455.777344 L 288.949219 486.644531 L 333.230469 454.730469 L 344.585938 470.480469 L 281.125 516.21875 L 205.378906 411.125 L 266.5 367.074219 L 277.847656 382.820312 L 235.902344 413.050781 L 255.460938 440.179688 L 295.0625 411.640625 Z M 175.722656 592.183594 L 99.976562 487.089844 L 121.808594 471.355469 L 181.417969 496.867188 C 196.867188 503.503906 211.707031 511.28125 224.746094 519.179688 L 225.058594 518.957031 C 213.691406 505.824219 203.449219 492.59375 191.875 476.535156 L 165.464844 439.894531 L 183.242188 427.082031 L 258.988281 532.171875 L 239.183594 546.445312 L 178.476562 520.070312 C 163.453125 513.363281 147.113281 505.480469 133.425781 497.34375 L 133.070312 497.832031 C 143.625 510.835938 153.785156 524.601562 166.257812 541.910156 L 193.34375 579.488281 L 175.722656 592.183594 " fill-opacity="1" fill-rule="nonzero"/></svg>