<svg xmlns="http://www.w3.org/2000/svg" xmlns:xlink="http://www.w3.org/1999/xlink" width="1080" zoomAndPan="magnify" viewBox="0 0 810 1012.49997" height="1350" preserveAspectRatio="xMidYMid meet" version="1.0"><defs><clipPath id="83b2310e13"><path d="M 64.261719 104.496094 L 768.164062 104.496094 L 768.164062 808.398438 L 64.261719 808.398438 Z M 64.261719 104.496094 " clip-rule="nonzero"/></clipPath></defs><g clip-path="url(#83b2310e13)"><path fill="#f9e207" d="M 768.304688 456.515625 L 668.066406 484.996094 L 759.5625 534.902344 L 655.519531 540.257812 L 733.480469 609.335938 L 630.847656 591.292969 L 691.46875 676.019531 L 595.324219 635.699219 L 635.644531 731.847656 L 550.914062 671.226562 L 568.960938 773.859375 L 499.882812 695.898438 L 494.523438 799.9375 L 444.617188 708.445312 L 416.28125 808.539062 L 387.804688 708.304688 L 337.898438 799.796875 L 332.539062 695.757812 L 263.460938 773.71875 L 281.507812 671.085938 L 196.777344 731.707031 L 237.097656 635.558594 L 140.953125 675.878906 L 201.570312 591.152344 L 99.082031 609.335938 L 177.042969 540.257812 L 73 534.902344 L 164.496094 484.996094 L 64.261719 456.515625 L 164.496094 428.039062 L 73 378.132812 L 177.042969 372.777344 L 99.082031 303.699219 L 201.714844 321.742188 L 141.09375 237.015625 L 237.238281 277.335938 L 196.777344 181.328125 L 281.507812 241.949219 L 263.460938 139.316406 L 332.539062 217.277344 L 337.898438 113.238281 L 387.804688 204.730469 L 416.28125 104.496094 L 444.757812 204.730469 L 494.664062 113.238281 L 500.023438 217.277344 L 569.101562 139.316406 L 551.054688 241.949219 L 635.785156 181.328125 L 595.464844 277.476562 L 691.609375 237.15625 L 630.992188 321.882812 L 733.621094 303.839844 L 655.660156 372.917969 L 759.703125 378.273438 L 668.207031 428.179688 Z M 768.304688 456.515625 " fill-opacity="1" fill-rule="nonzero"/></g><path fill="#046cbb" d="M 274.738281 480.765625 L 273.1875 569.582031 L 233.714844 575.785156 L 236.816406 394.628906 L 277.417969 388.144531 L 299.128906 468.640625 L 300.539062 384.476562 L 339.871094 378.273438 L 336.910156 559.429688 L 299.269531 565.351562 Z M 359.042969 375.3125 L 436.160156 363.050781 L 435.453125 406.46875 L 398.941406 412.25 L 398.519531 437.203125 L 433.480469 431.707031 L 432.777344 475.125 L 397.8125 480.625 L 397.390625 506.421875 L 433.902344 500.644531 L 433.199219 544.066406 L 356.082031 556.328125 Z M 519.617188 436.78125 L 508.621094 532.222656 L 468.441406 538.566406 L 443.488281 361.921875 L 484.375 355.4375 L 491.84375 452.289062 L 505.660156 352.054688 L 536.394531 347.117188 L 547.109375 443.40625 L 557.683594 343.734375 L 598.566406 337.25 L 567.691406 522.777344 L 527.230469 529.121094 Z M 519.617188 436.78125 " fill-opacity="1" fill-rule="nonzero"/></svg>