<?xml version="1.0" standalone="no"?>
<!DOCTYPE svg PUBLIC "-//W3C//DTD SVG 20010904//EN"
 "http://www.w3.org/TR/2001/REC-SVG-20010904/DTD/svg10.dtd">
<svg version="1.0" xmlns="http://www.w3.org/2000/svg"
 width="877.000000pt" height="1280.000000pt" viewBox="0 0 877.000000 1280.000000"
 preserveAspectRatio="xMidYMid meet">
<metadata>
Created by potrace 1.15, written by Peter Selinger 2001-2017
</metadata>
<g transform="translate(0.000000,1280.000000) scale(0.100000,-0.100000)"
fill="#13196b" stroke="none">
<path d="M0 6400 l0 -6400 3952 2 3952 3 62 210 c34 116 143 482 242 815 99
333 266 894 371 1247 l191 642 0 121 0 120 -2595 0 -2595 0 0 895 0 895 1750
0 1750 0 0 1580 0 1580 -1735 0 -1735 0 0 765 0 765 2438 2 2438 3 -162 700
c-89 385 -248 1076 -353 1535 -106 459 -197 854 -203 878 l-10 42 -3879 0
-3879 0 0 -6400z"/>
</g>
</svg>
